<?xml version="1.0" standalone="no"?>
<!DOCTYPE svg PUBLIC "-//W3C//DTD SVG 20010904//EN"
 "http://www.w3.org/TR/2001/REC-SVG-20010904/DTD/svg10.dtd">
<svg version="1.0" xmlns="http://www.w3.org/2000/svg"
 width="2000.000000pt" height="1500.000000pt" viewBox="0 0 2000.000000 1500.000000"
 preserveAspectRatio="xMidYMid meet">

<g transform="translate(0.000000,1500.000000) scale(0.100000,-0.100000)"
fill="#000000" stroke="none">
<path d="M8332 10684 c-12 -8 -30 -30 -40 -47 -16 -30 -17 -203 -17 -3137 0
-2952 1 -3107 18 -3137 9 -18 29 -40 43 -50 23 -15 29 -15 52 -2 14 8 35 30
46 49 l21 35 0 3105 c0 2934 -1 3107 -17 3137 -18 32 -54 63 -73 63 -6 0 -21
-7 -33 -16z"/>
<path d="M11767 10336 l-158 -20 3 -35 3 -36 75 -10 75 -10 3 -218 c1 -121 -1
-217 -5 -215 -159 81 -301 86 -442 17 -83 -41 -176 -134 -218 -220 -53 -104
-67 -176 -67 -329 0 -121 3 -143 28 -214 30 -88 49 -120 110 -184 61 -64 126
-94 216 -100 133 -8 238 27 342 111 l57 46 6 -57 c3 -31 10 -64 14 -72 9 -16
13 -16 161 -6 140 10 140 10 140 50 0 35 0 35 -57 41 -92 10 -90 9 -98 78 -4
34 -6 359 -5 722 1 363 2 666 1 673 0 6 -7 11 -13 11 -7 -1 -84 -11 -171 -23z
m-102 -615 c28 -12 62 -34 78 -48 l27 -27 0 -310 0 -309 -46 -45 c-54 -51
-149 -99 -214 -108 -127 -17 -236 78 -269 234 -15 74 -13 274 4 355 27 130 95
238 170 273 46 22 187 13 250 -15z"/>
<path d="M15669 10356 c-2 -2 -71 -12 -152 -22 l-148 -18 3 -35 3 -36 78 -9
77 -8 -1 -622 c0 -341 -4 -643 -7 -671 l-7 -50 -72 -9 c-63 -8 -72 -11 -77
-32 -14 -54 -15 -54 256 -54 l249 0 -3 38 -3 37 -78 14 -78 15 2 722 c0 398
-2 727 -6 733 -6 11 -28 15 -36 7z"/>
<path d="M12345 10335 c-57 -21 -85 -56 -85 -110 0 -81 74 -134 165 -116 78
15 115 50 115 111 0 39 -29 93 -58 109 -35 19 -96 22 -137 6z"/>
<path d="M13929 10341 c-65 -21 -99 -61 -99 -116 0 -30 21 -75 44 -94 48 -40
164 -30 211 19 47 49 33 135 -30 176 -29 19 -90 26 -126 15z"/>
<path d="M9173 10313 c-3 -6 -3 -22 -1 -35 3 -21 10 -24 88 -33 l85 -10 0
-740 c0 -780 -3 -843 -46 -932 -25 -51 -78 -81 -115 -64 -29 13 -43 46 -52
121 l-7 55 -46 9 c-54 10 -112 2 -134 -20 -33 -33 -10 -143 40 -189 42 -40 94
-55 191 -55 89 0 138 18 196 69 66 58 127 169 159 291 9 32 14 251 18 743 5
584 8 699 20 706 8 5 39 12 69 16 76 9 82 13 82 49 l0 31 -271 0 c-199 0 -273
-3 -276 -12z"/>
<path d="M10090 9853 c-14 -3 -86 -13 -160 -22 l-135 -16 0 -35 0 -35 75 -10
75 -10 5 -395 c5 -392 5 -395 29 -444 43 -87 140 -131 271 -124 106 6 172 39
266 131 41 40 77 71 79 68 3 -2 5 -39 5 -81 0 -108 6 -114 104 -101 42 6 101
11 130 11 62 0 89 16 84 51 -3 25 -9 27 -120 44 l-38 6 0 468 c0 359 -3 471
-12 483 -12 14 -29 13 -171 -6 -166 -22 -177 -27 -162 -75 5 -16 19 -21 80
-26 l75 -7 0 -338 0 -338 -36 -43 c-98 -117 -235 -170 -324 -124 -71 36 -82
128 -73 586 6 315 3 391 -15 388 -4 -1 -18 -4 -32 -6z"/>
<path d="M12405 9839 c-66 -10 -139 -18 -162 -18 l-43 -1 0 -39 0 -39 74 -7
c64 -6 75 -10 80 -29 8 -30 6 -733 -2 -781 l-7 -40 -73 -9 -72 -9 0 -38 0 -39
251 0 250 0 -3 38 -3 37 -78 14 -79 15 3 473 c2 288 -1 476 -7 481 -5 5 -63 0
-129 -9z"/>
<path d="M13200 9850 c-172 -36 -322 -191 -366 -376 -23 -99 -15 -325 15 -408
42 -119 120 -212 216 -260 164 -81 385 -54 517 64 36 32 41 41 32 56 -21 36
-39 39 -76 11 -98 -75 -243 -107 -332 -73 -122 47 -186 199 -186 441 1 272
111 465 266 465 86 0 133 -50 162 -169 l17 -72 60 7 c33 3 75 12 93 20 27 11
32 18 32 47 0 53 -46 134 -99 173 -86 63 -244 96 -351 74z"/>
<path d="M14049 9849 c-25 -5 -97 -15 -160 -22 l-114 -12 0 -35 0 -35 75 -10
75 -10 0 -420 0 -420 -75 -10 -75 -10 -3 -37 -3 -38 250 0 251 0 0 39 0 38
-75 12 -75 12 0 469 c0 439 -2 502 -19 499 -3 -1 -27 -5 -52 -10z"/>
<path d="M14716 9849 c-116 -17 -240 -96 -271 -173 -7 -17 -15 -48 -19 -69 -6
-32 -3 -41 19 -63 25 -24 32 -26 87 -21 33 3 62 7 64 10 3 3 11 30 18 60 30
130 104 194 212 185 107 -9 144 -82 147 -286 l2 -117 -91 -7 c-122 -9 -214
-32 -299 -73 -126 -60 -184 -138 -193 -257 -7 -96 12 -152 68 -208 58 -58 112
-75 217 -67 95 7 196 54 263 121 25 25 48 46 53 46 4 0 7 -17 7 -37 0 -37 14
-111 22 -119 4 -4 198 12 266 22 29 4 32 8 32 39 0 33 -1 33 -52 40 -29 3 -65
8 -80 11 l-28 6 0 341 c0 374 -8 448 -55 519 -56 84 -211 123 -389 97z m264
-695 l0 -146 -42 -39 c-89 -82 -213 -118 -291 -85 -54 22 -80 84 -75 177 3 56
9 76 34 111 49 71 187 125 322 127 l52 1 0 -146z"/>
<path d="M5093 9730 c-80 -19 -155 -84 -188 -163 -22 -53 -20 -161 5 -212 25
-52 80 -108 129 -131 45 -22 157 -30 204 -15 62 21 123 76 154 138 100 205
-82 436 -304 383z"/>
<path d="M3822 9490 c-739 -75 -865 -90 -882 -105 -16 -15 -20 -31 -20 -85 0
-98 3 -100 183 -100 81 0 147 -2 147 -5 0 -2 -166 -428 -370 -946 -403 -1026
-398 -1011 -345 -1064 l24 -25 766 0 766 0 24 25 c53 52 58 38 -345 1063 -203
518 -370 944 -370 947 0 3 326 5 725 5 l725 0 -30 42 c-49 67 -74 165 -67 259
l6 79 -37 -1 c-20 -1 -425 -41 -900 -89z m-167 -1320 c173 -441 315 -804 315
-806 0 -2 -290 -4 -645 -4 -355 0 -645 2 -645 5 0 2 141 363 313 802 173 439
317 807 321 818 7 18 8 18 17 3 5 -9 151 -377 324 -818z"/>
<path d="M5555 9473 c0 -98 -3 -114 -29 -170 -16 -35 -35 -68 -42 -74 -8 -6
-14 -15 -14 -20 0 -5 314 -9 721 -9 682 0 721 -1 717 -17 -3 -10 -170 -439
-373 -953 -343 -874 -367 -938 -362 -984 9 -93 -58 -86 816 -86 758 0 767 0
789 20 18 17 22 32 22 77 0 50 -39 155 -366 987 -201 512 -368 937 -371 944
-4 9 29 12 144 12 181 0 183 1 183 103 0 74 -12 93 -63 102 -37 6 -1727 175
-1754 175 -16 0 -18 -10 -18 -107z m1755 -1283 c172 -437 315 -803 317 -812 5
-17 -30 -18 -636 -18 -506 0 -641 3 -641 13 -1 24 634 1627 641 1620 4 -5 147
-366 319 -803z"/>
<path d="M5020 7582 l0 -1500 -79 -3 c-116 -6 -121 -12 -121 -158 l0 -116
-137 -137 -138 -138 610 0 610 0 -133 133 -132 132 0 101 c0 163 -16 184 -146
184 l-64 0 0 1501 0 1501 -32 -9 c-42 -10 -152 -10 -200 0 l-38 8 0 -1499z"/>
<path d="M9583 8286 c-128 -30 -244 -112 -287 -205 -17 -38 -21 -65 -21 -156
0 -103 2 -114 32 -177 53 -113 138 -182 370 -303 142 -74 232 -142 271 -203
100 -154 46 -370 -106 -429 -90 -34 -288 -16 -390 36 l-38 19 -29 152 c-27
139 -31 153 -53 161 -14 5 -40 7 -58 3 l-34 -6 0 -183 0 -182 68 -31 c216 -99
490 -108 669 -21 89 43 166 117 205 197 31 62 33 73 33 172 0 95 -3 110 -28
163 -61 123 -175 217 -412 340 -236 121 -295 189 -295 336 1 117 42 187 135
227 82 36 303 9 362 -43 15 -14 27 -55 48 -173 15 -85 33 -158 39 -162 13 -9
59 -10 80 -2 14 5 16 31 16 189 l0 182 -67 31 c-38 17 -102 40 -143 52 -98 28
-280 35 -367 16z"/>
<path d="M13464 8271 c-68 -31 -91 -86 -64 -155 30 -81 201 -90 254 -14 23 33
20 100 -6 133 -42 54 -113 68 -184 36z"/>
<path d="M10790 7785 c-169 -48 -295 -193 -336 -385 -24 -113 -15 -300 20
-403 31 -91 45 -117 100 -175 151 -161 489 -161 643 0 25 26 25 28 9 53 -20
31 -29 31 -70 0 -94 -71 -220 -100 -317 -71 -127 36 -196 165 -201 376 l-3 95
311 3 c233 2 314 5 321 15 13 16 0 158 -22 233 -36 127 -109 216 -203 249 -68
24 -185 28 -252 10z m181 -88 c19 -12 44 -41 57 -64 26 -47 52 -157 52 -219 0
-35 -4 -43 -22 -48 -13 -3 -112 -9 -222 -13 l-199 -6 8 49 c35 237 198 387
326 301z"/>
<path d="M11719 7796 c-2 -2 -70 -12 -151 -22 -156 -18 -169 -24 -153 -73 5
-15 20 -20 80 -26 l75 -7 0 -419 0 -419 -22 -4 c-13 -3 -48 -8 -78 -13 -55 -8
-55 -8 -55 -43 l0 -35 278 -1 277 -1 0 38 0 37 -105 12 -105 13 0 315 0 315
35 43 c22 27 59 55 100 75 61 30 69 31 162 28 l97 -4 11 39 c6 22 16 41 21 43
5 1 34 -3 64 -10 l54 -12 124 -315 c285 -730 273 -700 292 -700 19 0 19 -1
302 725 l113 289 35 8 c19 4 52 9 72 13 38 6 54 28 42 59 -5 14 -30 16 -195
18 -104 0 -195 1 -201 2 -8 1 -14 -14 -16 -35 -3 -35 -2 -36 35 -42 21 -4 55
-7 76 -7 20 0 37 -4 37 -9 0 -5 -41 -120 -91 -257 -50 -137 -107 -297 -126
-356 l-35 -108 -78 233 c-43 127 -97 283 -119 346 -23 63 -41 120 -41 127 0 7
19 15 43 19 63 11 79 22 75 53 l-3 27 -225 5 c-124 3 -230 2 -236 -3 -7 -4
-14 0 -17 12 -6 25 -101 39 -156 22 -76 -22 -169 -103 -239 -207 -11 -16 -12
-4 -8 76 4 98 -4 140 -27 140 -8 0 -16 -2 -18 -4z"/>
<path d="M13560 7785 c-46 -8 -117 -17 -158 -21 l-73 -6 3 -37 3 -36 75 -10
75 -10 0 -413 c0 -342 -2 -414 -14 -421 -8 -5 -43 -12 -77 -16 l-64 -7 0 -37
0 -37 250 0 250 0 0 36 0 37 -77 14 -78 14 -1 470 c-1 259 -2 476 -3 483 -1
14 1 14 -111 -3z"/>
<path d="M14313 7785 c-156 -43 -271 -153 -330 -311 -21 -57 -26 -92 -30 -199
-8 -206 28 -330 127 -438 155 -170 438 -184 628 -30 46 38 50 51 25 82 l-18
21 -48 -34 c-141 -101 -299 -113 -396 -30 -73 63 -109 169 -118 349 -7 143 11
255 56 351 90 192 273 229 347 70 13 -28 26 -70 30 -93 l6 -43 59 0 c33 0 76
7 96 15 35 15 36 15 31 66 -9 91 -95 179 -211 215 -75 23 -192 27 -254 9z"/>
<path d="M15283 7785 c-80 -22 -132 -52 -199 -117 -107 -102 -154 -230 -154
-420 0 -198 39 -326 130 -422 153 -161 454 -170 630 -18 l44 39 -17 27 c-22
32 -30 32 -71 1 -135 -103 -321 -110 -414 -17 -68 68 -98 158 -109 319 l-6
103 319 2 319 3 0 85 c-1 155 -71 316 -165 375 -82 52 -204 67 -307 40z m167
-80 c59 -31 102 -128 115 -262 7 -68 7 -70 -16 -77 -13 -3 -114 -9 -223 -13
l-199 -6 7 49 c17 128 87 259 161 301 47 26 113 30 155 8z"/>
<path d="M2705 6969 c66 -67 134 -127 152 -135 47 -21 889 -21 936 0 18 8 86
68 152 135 l120 121 -740 0 -740 0 120 -121z"/>
<path d="M6365 6969 c66 -67 134 -127 152 -135 26 -11 117 -14 470 -14 414 0
439 1 477 20 23 11 93 71 156 135 l115 115 -745 0 -745 0 120 -121z"/>
<path d="M10681 6227 c-18 -6 -57 -33 -87 -60 -98 -89 -144 -223 -144 -419 l0
-108 -70 0 -70 0 0 -39 0 -39 68 -8 67 -9 0 -378 c0 -312 -2 -379 -14 -386 -8
-5 -40 -14 -72 -20 -60 -12 -77 -30 -65 -68 5 -17 28 -18 288 -17 l283 0 3 32
c4 39 5 38 -129 60 l-104 18 0 369 0 370 132 19 c121 18 132 21 137 42 13 51
4 54 -140 54 l-134 0 0 78 c0 114 18 300 35 357 23 80 83 122 130 91 23 -15
48 -75 61 -148 l6 -38 57 1 c84 0 125 17 129 53 5 43 -25 111 -64 145 -18 17
-57 37 -86 46 -58 17 -166 18 -217 2z"/>
<path d="M12150 6225 c-146 -29 -279 -103 -390 -215 -105 -107 -163 -211 -207
-371 -27 -98 -25 -327 5 -439 72 -273 248 -461 497 -531 62 -18 106 -23 200
-23 105 0 130 3 199 27 71 25 142 61 219 111 l25 17 27 -80 c26 -80 27 -81 60
-81 31 0 33 2 39 43 3 23 9 161 12 307 3 146 10 270 15 275 6 6 42 15 82 20
72 10 72 10 75 43 l3 32 -234 0 c-129 0 -248 3 -265 6 -27 6 -32 3 -38 -20
-10 -40 9 -53 86 -60 l70 -7 0 -209 0 -208 -74 -31 c-117 -49 -197 -64 -308
-59 -85 4 -106 9 -165 38 -98 48 -171 127 -227 243 -69 144 -81 203 -81 407 0
153 3 185 23 255 68 236 236 404 433 435 71 11 218 0 294 -21 38 -11 115 -46
115 -53 0 -1 13 -72 30 -157 16 -85 30 -155 30 -155 0 -8 55 -13 79 -8 l31 7
0 181 0 182 -37 18 c-67 33 -176 66 -262 81 -101 18 -272 18 -361 0z"/>
<path d="M13260 6224 c-173 -24 -175 -24 -175 -59 0 -32 13 -38 108 -50 l47
-6 0 -668 0 -669 -32 -5 c-18 -3 -55 -9 -81 -13 -48 -6 -48 -7 -45 -42 l3 -35
248 -1 247 -1 0 36 0 36 -62 12 c-35 7 -71 14 -80 17 -17 5 -18 29 -18 319 l0
313 44 60 c121 165 325 204 384 74 15 -32 17 -85 20 -400 l3 -362 -23 -9 c-13
-4 -49 -12 -81 -15 l-58 -8 3 -35 3 -36 248 -1 247 -1 0 37 0 36 -77 14 -78
14 -5 394 c-5 432 -4 424 -67 481 -89 83 -254 99 -382 37 -25 -12 -77 -51
-115 -87 l-69 -66 4 350 4 350 -30 1 c-16 1 -77 -5 -135 -12z"/>
<path d="M9560 5729 c-162 -32 -306 -183 -355 -374 -21 -79 -21 -260 0 -340
49 -190 175 -321 345 -359 223 -51 428 41 532 240 48 91 68 176 68 293 0 364
-262 604 -590 540z m228 -106 c88 -54 144 -172 163 -340 18 -166 -16 -349 -85
-453 -71 -108 -221 -139 -327 -67 -108 73 -170 267 -155 487 11 155 37 236
104 319 76 93 201 116 300 54z"/>
<path d="M14600 5722 c-130 -34 -219 -111 -241 -208 -10 -45 -10 -57 4 -77 18
-28 64 -39 122 -29 38 7 40 9 55 67 9 33 24 74 33 91 20 39 70 82 103 89 13 3
34 7 47 10 36 7 91 -12 120 -42 37 -40 57 -127 57 -254 l0 -107 -67 -7 c-266
-25 -437 -107 -493 -237 -28 -65 -30 -174 -6 -233 78 -185 340 -192 539 -14
l55 49 4 -75 c2 -41 8 -78 13 -83 6 -6 41 -6 85 -1 41 5 107 12 145 16 67 8
70 9 73 35 4 33 -16 44 -100 53 l-58 6 0 317 c0 174 -5 350 -10 391 -13 99
-48 173 -97 205 -83 55 -253 72 -383 38z m300 -686 l0 -154 -42 -37 c-69 -58
-143 -90 -213 -90 -105 0 -145 47 -145 170 0 83 16 122 70 168 47 40 105 63
213 82 129 24 117 38 117 -139z"/>
<path d="M15535 5725 c-44 -7 -110 -15 -147 -19 l-68 -8 0 -33 c0 -38 4 -40
91 -50 47 -5 58 -10 63 -28 8 -30 8 -598 -1 -719 -7 -109 3 -99 -106 -113 -51
-7 -63 -20 -54 -58 l6 -22 248 1 248 1 3 31 c4 37 -1 40 -92 56 l-61 11 -2
325 -3 325 51 60 c91 106 173 152 256 142 53 -6 90 -30 118 -78 19 -32 20 -55
23 -406 l3 -372 -48 -6 c-100 -14 -108 -18 -108 -54 l0 -34 248 -1 247 -1 0
37 c0 35 -2 37 -37 44 -21 3 -54 9 -73 13 l-35 7 -5 384 -5 385 -29 58 c-47
97 -153 146 -292 134 -91 -7 -163 -44 -246 -127 l-70 -69 3 87 c2 48 0 93 -4
100 -9 14 -15 14 -122 -3z"/>
<path d="M16853 5726 c-77 -19 -157 -62 -197 -106 -38 -43 -72 -136 -61 -171
10 -31 65 -50 120 -42 51 7 50 6 79 106 33 111 131 173 231 146 80 -22 110
-90 121 -278 l7 -119 -79 -7 c-170 -15 -298 -53 -388 -114 -87 -60 -126 -137
-126 -250 0 -267 314 -338 549 -125 l58 53 6 -70 c3 -39 10 -76 16 -83 8 -9
36 -9 128 1 65 6 130 12 146 12 24 1 27 5 27 35 0 38 -1 38 -107 51 l-52 7 -3
371 c-4 308 -7 380 -20 420 -32 95 -88 143 -196 166 -68 14 -193 13 -259 -3z
m297 -685 l0 -148 -46 -42 c-127 -118 -298 -131 -345 -27 -36 79 -20 196 34
254 52 56 185 100 335 110 22 2 22 1 22 -147z"/>
<path d="M4318 5459 c-52 -20 -64 -143 -18 -181 21 -17 75 -18 857 -18 l834 0
24 25 c33 32 36 120 6 156 l-19 24 -829 2 c-530 1 -838 -2 -855 -8z"/>
</g>
</svg>
